<?xml version="1.0" encoding="UTF-8"?>
<svg width="24px" height="24px" viewBox="0 0 24 24" version="1.1" xmlns="http://www.w3.org/2000/svg" xmlns:xlink="http://www.w3.org/1999/xlink">
    <!-- Generator: Sketch 55.1 (78136) - https://sketchapp.com -->
    <title>Facebook</title>
    <desc>Created with Sketch.</desc>
    <g id="Symbols" stroke="none" stroke-width="1" fill="none" fill-rule="evenodd">
        <g id="Footer-/-1300" transform="translate(-1299.000000, -92.000000)" fill="#FFFFFF">
            <path d="M1321.67549,116 L1315.55961,116 L1315.55961,106.705565 L1318.67933,106.705565 L1319.14677,103.083762 L1315.55961,103.083762 L1315.55961,100.771431 C1315.55961,99.7228079 1315.85119,99.0075999 1317.35483,99.0075999 L1319.27294,99.0069461 L1319.27294,95.7675901 C1318.94084,95.7231348 1317.80265,95.6244177 1316.47814,95.6244177 C1313.71276,95.6244177 1311.81948,97.3124132 1311.81948,100.412519 L1311.81948,103.083762 L1308.69192,103.083762 L1308.69192,106.705565 L1311.81948,106.705565 L1311.81948,116 L1300.32451,116 C1299.59296,116 1299,115.407044 1299,114.675492 L1299,93.3245076 C1299,92.5929558 1299.59296,92 1300.32451,92 L1321.67549,92 C1322.40704,92 1323,92.5929558 1323,93.3245076 L1323,114.675492 C1323,115.407044 1322.40704,116 1321.67549,116 Z" id="Facebook"></path>
        </g>
    </g>
</svg>