<svg width="24" height="24" viewBox="0 0 24 24" fill="none" xmlns="http://www.w3.org/2000/svg">
<path d="M15 16.092C15.096 16.2 15.096 16.428 15 16.56C14.124 17.4 12.492 17.472 12 17.472C11.532 17.472 9.9 17.4 9.048 16.56C8.928 16.428 8.928 16.2 9.048 16.092C9.18 15.972 9.384 15.972 9.504 16.092C10.056 16.644 11.196 16.8 12 16.8C12.828 16.8 13.992 16.644 14.52 16.092C14.652 15.972 14.856 15.972 15 16.092ZM10.5 13.248C10.5 12.564 9.936 12 9.252 12C8.568 12 8.004 12.564 8.004 13.248C8.004 13.932 8.568 14.508 9.252 14.496C9.936 14.496 10.5 13.932 10.5 13.248ZM14.748 12C14.064 12 13.5 12.6 13.5 13.26C13.5 13.92 14.064 14.508 14.748 14.508C15.432 14.508 15.996 13.932 15.996 13.26C15.996 12.6 15.432 12 14.748 12ZM24 12C24 18.6 18.6 24 12 24C5.4 24 0 18.6 0 12C0 5.4 5.4 0 12 0C18.6 0 24 5.4 24 12ZM20.004 12C20.004 11.028 19.2 10.248 18.264 10.248C17.784 10.248 17.352 10.44 17.04 10.74C15.84 9.876 14.196 9.324 12.36 9.252L13.164 5.496L15.768 6.06C15.792 6.72 16.344 7.248 17.016 7.248C17.7 7.248 18.264 6.684 18.264 6C18.264 5.316 17.7 4.752 17.016 4.752C16.524 4.752 16.092 5.04 15.9 5.46L12.984 4.836C12.9 4.8 12.816 4.836 12.756 4.884C12.684 4.932 12.648 5.004 12.636 5.088L11.748 9.264C9.888 9.324 8.208 9.876 6.984 10.752C6.672 10.452 6.24 10.272 5.772 10.272C4.8 10.272 4.02 11.052 4.02 12C4.02 12.732 4.452 13.332 5.052 13.608C5.028 13.8 5.016 13.944 5.016 14.136C5.016 16.8 8.148 19.02 12 19.02C15.876 19.02 19.02 16.836 19.02 14.136C19.02 13.968 19.008 13.8 18.972 13.608C19.572 13.332 20.004 12.72 20.004 12Z" fill="white"/>
</svg>
