<?xml version="1.0" encoding="UTF-8"?>
<svg width="24px" height="20px" viewBox="0 0 24 20" version="1.1" xmlns="http://www.w3.org/2000/svg" xmlns:xlink="http://www.w3.org/1999/xlink">
    <!-- Generator: Sketch 55.1 (78136) - https://sketchapp.com -->
    <title>Twitter</title>
    <desc>Created with Sketch.</desc>
    <g id="Symbols" stroke="none" stroke-width="1" fill="none" fill-rule="evenodd">
        <g id="Footer-/-1300" transform="translate(-1355.000000, -94.000000)" fill="#FFFFFF">
            <path d="M1375.20901,95.5936178 C1374.31317,94.6125849 1373.03284,94 1371.61538,94 C1368.89838,94 1366.69338,96.260669 1366.69338,99.0486992 C1366.69338,99.4447008 1366.73567,99.8291683 1366.82025,100.198898 C1362.72809,99.9880815 1359.1005,97.9798795 1356.67057,94.9220813 C1356.24636,95.6705113 1356.00414,96.5381264 1356.00414,97.4627707 C1356.00414,99.2133795 1356.87307,100.75958 1358.19504,101.665001 C1357.38891,101.640651 1356.62828,101.410611 1355.96313,101.035115 L1355.96313,101.09727 C1355.96313,103.544406 1357.66061,105.585288 1359.91496,106.04793 C1359.50228,106.165834 1359.06654,106.225426 1358.61733,106.225426 C1358.30014,106.225426 1357.99063,106.195309 1357.69073,106.135717 C1358.31744,108.140715 1360.13476,109.601051 1362.28978,109.640138 C1360.60511,110.995386 1358.48084,111.802768 1356.17459,111.802768 C1355.77729,111.802768 1355.38448,111.7797 1355,111.733564 C1357.17873,113.163783 1359.76822,114 1362.54802,114 C1371.60577,114 1376.55726,106.307446 1376.55726,99.635653 C1376.55726,99.4158657 1376.55341,99.1960784 1376.54508,98.9807766 C1377.50693,98.2688709 1378.34254,97.3801102 1379,96.3676791 C1378.11825,96.7694476 1377.16858,97.041138 1376.17278,97.1622453 C1377.18973,96.5381264 1377.97023,95.5487633 1378.33805,94.3703704 C1377.38582,94.9477124 1376.33362,95.3680636 1375.20901,95.5936178 Z" id="Twitter"></path>
        </g>
    </g>
</svg>