<?xml version="1.0" encoding="UTF-8"?>
<svg width="38px" height="29px" viewBox="0 0 38 29" version="1.1" xmlns="http://www.w3.org/2000/svg" xmlns:xlink="http://www.w3.org/1999/xlink">
    <!-- Generator: Sketch 55.1 (78136) - https://sketchapp.com -->
    <title>FAB / Mini / Circular / Secondary Color / Enabled  Copy 2</title>
    <desc>Created with Sketch.</desc>
    <g id="Symbols" stroke="none" stroke-width="1" fill="none" fill-rule="evenodd">
        <g id="Footer-/-1300" transform="translate(-313.000000, -73.000000)" fill="#D98F40">
            <g id="FAB-/-Mini-/-Circular-/-Secondary-Color-/-Enabled--Copy-2" transform="translate(312.000000, 68.000000)">
                <g id="icon-/-Vortex">
                    <g id="VORTEX" transform="translate(1.666667, 5.000000)">
                        <path d="M9.9363528,9.43995011 L9.93080839,9.59707829 L11.1291161,11.086492 C10.0996222,10.6619569 8.59072784,10.4290031 7.42177901,10.3812941 C8.3400181,9.68205982 9.42127649,8.63991748 9.99725222,7.71406573 L9.93863099,9.37538633 C12.1034418,8.75504753 16.4647982,7.68048963 20.60091,7.71487108 C22.8203111,7.73373949 25.1061123,7.93485943 27.0867846,8.3381713 C26.364824,8.61648008 25.5205011,8.89929156 24.5416018,9.18381831 C20.4079897,8.48663264 14.4516794,8.42143659 9.9363528,9.43995011 Z M9.19485327,21.5249543 C9.19485327,21.5249543 11.8015178,23.7977379 16.3107315,23.7977379 C19.4112717,23.7977379 19.8332989,23.3004272 19.8332989,23.3004272 C19.8295407,23.3015418 19.2609425,25.2207912 15.3236432,25.2185641 C11.3788275,25.216333 9.19485327,22.4482448 9.19485327,21.5249543 Z M6.93821331,18.2709795 C6.93821331,18.2709795 9.70207325,20.4976476 16.2224611,20.4976476 C22.7428489,20.4976476 25.0101524,17.9919363 25.0101524,17.9919363 C25.0101524,17.9919363 26.9238847,22.1673212 16.7185727,22.1673212 C8.71029472,22.1673212 6.93821331,18.2709795 6.93821331,18.2709795 Z M29.2956754,12.2503004 C30.4473101,11.8158387 31.451516,11.3725286 32.3231916,10.9259003 C32.5833601,11.3057224 32.7312337,11.7200536 32.7283845,12.1761941 C32.7009919,15.2079134 24.5908507,18.8753978 15.0235437,18.7935491 C5.45712605,18.7121428 3.7144419,15.3132106 3.7144419,15.3132106 C3.7144419,15.3132106 7.24517293,16.8234293 12.347366,16.8672294 C17.6834885,16.912578 27.8663053,15.1092525 29.2956754,12.2503004 Z M12.0962475,27.9188638 L8.87247618,28.2698069 L9.71194993,26.6638896 C9.8711943,26.887197 10.218736,27.3117675 10.81137,27.6087024 C11.3452429,27.8763186 11.8314955,27.916439 12.0962475,27.9188638 Z M10.178811,24.4156054 C10.178811,24.4156054 11.6834388,26.7262382 15.4812075,26.3759958 C15.4812075,26.3759958 13.7243094,27.8431027 11.683214,26.7262382 C9.89236511,25.746043 10.178811,24.4156054 10.178811,24.4156054 Z M19.5010374,11.1024129 C5.35785324,13.9902893 2.79919678,11.0935367 2.61603868,10.1670818 C2.43221374,9.2401831 4.87350675,5.76292609 17.2657973,3.39652732 C29.6571987,1.03079425 33.2814619,3.15509428 33.4650645,4.08177107 C33.6486672,5.00778215 33.6444439,8.21498036 19.5010374,11.1024129 M36.5182923,3.75712353 C36.2026558,2.16650589 31.6279265,-1.80271532 16.9637197,0.955346429 C2.2997353,3.71340817 -0.282927317,9.36445016 0.0313755468,10.954624 C0.346567526,12.5447977 3.71698781,17.7163022 20.4350548,14.2508062 C37.1497877,10.8785104 36.8097005,5.90095124 36.5182923,3.75712353" id="Fill-21"></path>
                    </g>
                </g>
            </g>
        </g>
    </g>
</svg>